<svg width="62" height="40" viewBox="0 0 62 40" fill="none" xmlns="http://www.w3.org/2000/svg">
<path d="M61.6976 16.2156V16.5288C61.4517 16.7581 61.2299 16.7707 61.0031 16.4787C60.9445 16.4004 60.8025 16.4066 60.6979 16.3738C60.4683 16.3777 60.1822 16.153 60.0684 16.5382H59.6445C59.0391 16.5115 58.8568 16.773 58.984 17.4955C59.0815 17.8979 58.8427 17.9363 58.5813 17.9551C58.281 17.8987 58.2097 18.1241 58.2068 18.3707C58.2033 18.6933 58.2386 19.0158 58.257 19.3383C58.2528 19.4025 58.2648 19.5137 58.2422 19.523C57.7745 19.7219 57.9249 20.1493 57.9334 20.5219C57.8917 21.2758 57.9045 22.0093 58.4181 22.612C58.4527 22.6528 58.4181 22.8469 58.3707 22.879C58.1235 23.0316 57.9702 23.4176 57.5978 23.2821C57.5781 23.2743 57.5343 23.3479 57.5018 23.3839L56.6172 23.4364C56.6384 23.6516 56.6575 23.8481 56.6766 24.0446L56.4646 24.1448L55.3999 24.281C55.2904 24.252 55.1174 24.2614 55.0806 24.1879C54.8567 23.737 54.555 23.9875 54.2724 24.0469L53.7072 23.9585C53.4041 23.5937 53.4041 23.5937 53.0007 23.9726L52.5132 24.2677C52.4504 24.5206 52.4037 24.7092 52.3571 24.8987C52.2158 24.829 52.0364 24.7985 51.9403 24.6826C51.7559 24.4611 51.6096 24.4438 51.4231 24.656C51.3396 24.742 51.2516 24.8225 51.1596 24.8971C51.0706 24.901 50.9477 24.8642 50.8975 24.9159C50.6361 25.1899 50.3754 25.0787 50.1076 24.9519C50.1338 24.8047 50.2277 24.5863 50.1733 24.5229C49.9225 24.2262 49.6873 23.8661 49.2549 23.8927L49.1087 23.8082L47.9917 22.8586C47.695 22.5165 47.4442 22.0915 46.932 22.1541L46.6013 22.1439L46.5017 22.1056H45.9415L45.8666 22.1243L45.7196 22.1525L45.6553 22.1431H45.2314L44.7369 22.6629H44.5956C44.3957 22.8054 44.2092 23.0285 43.9937 23.07C43.7323 23.1201 43.7464 23.2688 43.7429 23.4614L43.2554 23.9702C43.1141 24.1182 42.9184 24.2387 42.8421 24.4211C42.7389 24.6669 42.7277 24.9597 42.6768 25.2321L42.6294 25.3222C42.6047 25.3464 42.5644 25.3668 42.5588 25.3965C42.4987 25.6666 42.5214 26.0439 42.368 26.1793C42.2147 26.3148 41.8813 26.2279 41.6269 26.2381L41.1388 26.3163C41.0342 26.4025 40.9028 26.4674 40.8307 26.5794C40.6831 26.8072 40.5721 27.0631 40.4351 27.2996C40.3913 27.3778 40.3093 27.4835 40.25 27.4796C39.8536 27.4522 39.6777 27.7998 39.4347 28.0346C39.3365 28.2695 38.9338 28.3391 39.1147 28.7345C38.9649 29.1094 38.8773 29.4969 38.9352 29.9087C38.9317 29.9533 38.9289 29.9979 38.9253 30.0418L38.8851 30.1506C38.801 30.3893 38.6625 30.3032 38.5254 30.2242C38.452 30.1198 38.3783 30.0154 38.3043 29.911L37.9984 29.2777H37.3873C37.1612 28.9082 37.0545 28.8777 36.69 29.1094C36.5367 29.2073 36.3961 29.331 36.2491 29.4429C36.1665 29.7177 35.9764 29.756 35.7511 29.7279C35.59 29.7052 35.4282 29.6856 35.2671 29.6652C34.9711 29.6214 34.6511 29.4711 34.4617 29.8915L34.2088 29.929C33.8513 29.8954 33.4846 29.6989 33.1448 29.9995L32.0851 30.7784L31.6499 30.9757L31.036 31.2003L29.9699 31.8055L29.3587 32.2603L28.7681 33.1292L28.6918 33.2913C28.5067 33.7124 28.3219 34.1338 28.1372 34.5555L27.7861 35.2405L27.3474 35.7837L26.7963 36.2871L26.0722 36.9548C25.9563 37.0331 25.8407 37.1114 25.7253 37.1897C25.3791 37.4136 25.047 37.6531 24.9234 38.1134L24.6069 38.7084L23.5366 39.1522L23.3953 39.2305C22.9876 39.2015 22.7524 39.553 22.45 39.7565L22.1222 39.9374L22.024 39.9906L21.4877 40C21.2532 39.8474 21.025 39.6806 20.7813 39.5499C20.6788 39.4943 20.5418 39.517 20.4209 39.5045L19.369 39.8677L18.3093 39.6931L17.754 39.1976L17.3548 38.4422C17.3053 38.3326 17.2566 38.223 17.2071 38.1142C17.1266 38.0516 17.0524 37.9506 16.9648 37.9334C16.7076 37.8848 16.4455 37.8692 16.1877 37.8402L15.1279 37.578C14.7945 37.293 14.4455 37.03 14.1388 36.7169C14.0138 36.5916 13.8562 36.3763 14.0795 36.1618C14.4674 36.0233 14.8658 36.3098 15.2968 35.9098C15.7073 35.5301 15.9022 35.1199 16.0499 34.615C16.1017 34.2231 16.1535 33.8317 16.2053 33.4408C16.1304 33.0499 16.0553 32.6585 15.98 32.2665C15.963 31.8819 15.9465 31.497 15.9305 31.1119L15.9694 31.0132C16.0499 30.8676 16.1311 30.722 16.2117 30.5757L16.8369 29.9267C16.9259 29.8241 17.0665 29.7357 17.0927 29.6136C17.1548 29.3318 17.1633 29.0351 17.1916 28.7446C17.168 28.3517 17.1445 27.9587 17.1209 27.5657C17.0884 27.2281 17.0557 26.8907 17.0227 26.5535L16.9881 26.4424C16.9917 26.4334 16.9927 26.4234 16.9911 26.4138C16.9895 26.4041 16.9852 26.3953 16.9789 26.3884C16.88 25.9996 16.7813 25.61 16.6829 25.2196L16.1968 24.1659L16.1538 24.0391L15.1484 22.8508L14.0703 22.014L13.0056 21.6374H12.5902L12.4906 21.675L11.9487 21.8472L10.889 22.0218L10.1387 21.6844C9.68372 21.221 9.23369 20.7513 8.77094 20.2973C8.43253 19.9622 8.07504 19.6491 7.73028 19.3281L6.66206 18.5296L5.71396 18.0772L5.59527 17.966L5.45397 17.9167C5.44644 17.9085 5.43724 17.9025 5.42716 17.8991C5.41707 17.8957 5.4064 17.895 5.39604 17.8971L4.532 17.6294C3.95268 17.4196 3.51536 17.656 3.16353 18.1625L2.39487 18.77L1.34926 18.9751C0.92537 18.932 0.532562 18.8451 0.360178 18.3324L0.302246 18.1758C0.302246 17.9762 0.308604 17.7766 0.31143 17.5762L0.346048 17.4658L0.396209 17.2396C0.416697 17.1613 0.437186 17.0893 0.456967 17.0141C0.649839 16.6157 0.810212 16.1875 1.23411 16.0098C1.29204 15.9863 1.32807 15.8994 1.3754 15.8422L1.36834 15.8563L2.41112 15.1956L3.11761 14.7189L3.47509 14.4997C3.5846 14.4285 3.71176 14.3768 3.80078 14.2821C3.90525 14.1682 4.03316 14.0842 4.17347 14.0372C4.31378 13.9903 4.46229 13.9819 4.60618 14.0128H4.95095L5.11838 13.5807C5.50978 12.8949 5.85243 12.1528 6.65853 11.9461L8.76528 10.7829C9.45411 10.4228 10.0497 9.79261 10.8939 9.88734C11.2634 9.84428 11.7015 10.0846 11.9537 9.57421L12.7527 8.80235L13.0035 8.60743C13.1448 8.5495 13.3207 8.52915 13.4218 8.42738C13.9078 7.92403 14.4108 7.488 15.1286 7.52401C15.5207 7.5929 15.9192 7.68057 16.0563 7.0825C16.0683 7.03005 16.1368 6.99326 16.1792 6.94942C16.4356 6.9549 16.7062 6.83669 16.9026 7.18035C16.9535 7.26881 17.2184 7.20697 17.3852 7.21401C17.4933 7.12007 17.5886 6.99326 17.7109 6.93689C17.9553 6.82495 17.9864 6.66839 17.8522 6.43902L18.0881 6.25584C18.1778 5.91297 18.2485 5.64133 18.3191 5.36969C18.3601 5.16694 18.4823 4.92818 18.4251 4.76771C18.264 4.31602 17.7568 4.11092 17.2396 4.21425L16.8157 4.07882C16.8475 3.96375 16.8793 3.84868 16.9153 3.71951C16.531 3.56295 16.6405 3.22555 16.6695 2.91477C16.4166 2.55938 16.4922 2.13196 16.4639 1.73115L16.483 0.556926C16.6398 0.205441 16.8362 -0.0740252 17.2488 0.0175645C18.0648 0.49978 18.7063 1.21919 19.3612 1.9206L20.3849 2.96331L21.5598 3.39151C21.6029 3.40247 21.6509 3.43457 21.6884 3.42282C21.9561 3.33828 22.2253 3.25452 22.4853 3.14649C22.527 3.12927 22.5277 2.98992 22.5468 2.91164L22.568 2.70654L22.8039 2.54998L22.9452 2.92182C23.165 3.25765 23.0604 3.62636 23.0258 3.9841C23.0392 4.08117 23.0208 4.21895 23.0717 4.26748C23.2438 4.42908 23.4233 4.58088 23.6093 4.7223C23.7287 5.27654 23.7287 5.27967 24.289 5.29063C24.4161 5.29063 24.544 5.27106 24.6719 5.26088C24.9792 5.05265 25.3148 4.88043 25.5797 4.61975C25.6836 4.51799 25.6285 4.21817 25.6461 4.00837L25.7451 3.87999C25.9923 3.81815 26.2078 3.82989 26.2622 4.17355L26.7907 4.071L27.3269 4.10544L27.6406 4.29723C27.4583 4.4898 27.2986 4.64872 27.146 4.81937C27.0224 4.9595 26.9115 5.11371 26.7928 5.26088C26.7391 5.85739 27.1383 6.12668 27.4837 6.43511C27.7296 6.57367 27.8645 7.16626 28.2679 6.66995C28.2757 6.66056 28.3117 6.67387 28.3336 6.6817C28.612 6.77876 28.5668 6.61907 28.4919 6.43667L28.8077 6.04996C28.8218 6.09771 28.8352 6.14546 28.8494 6.19322L28.884 6.30359C28.8875 6.34743 28.8903 6.39127 28.8939 6.43432C28.8797 6.71301 29.0931 6.60654 29.2097 6.66917C29.2828 6.71402 29.3535 6.76342 29.4216 6.81712C29.38 6.89535 29.3278 6.96609 29.2669 7.02692C29.1256 7.1279 28.9744 7.2054 28.8275 7.29308C28.6896 7.77911 28.719 8.30451 28.9101 8.76791L29.9699 8.70841C30.3436 8.38276 30.7145 8.05398 31.0939 7.73615C31.144 7.69388 31.2352 7.70719 31.3058 7.69544L31.7799 8.41016L31.8788 8.4493L32.0823 8.43521C32.196 8.45312 32.3107 8.46332 32.4256 8.46574C32.6376 8.45634 32.687 8.58159 32.6581 8.77886C32.5874 9.02232 32.2412 9.2008 32.4913 9.51941C32.6292 9.67516 32.7765 9.82032 32.9322 9.95388C33.3038 10.4517 33.8139 10.2459 34.2745 10.278C34.6595 10.3069 34.8595 10.5684 34.9944 10.9434C35.0333 11.0514 35.1732 11.1156 35.2664 11.2001L35.8267 11.186L35.903 11.1665L36.0443 11.1939L36.3064 11.4702L36.8631 12.3227L37.3124 13.0061L37.5547 13.4656L37.7985 14.6508C37.7949 14.6923 37.7921 14.7345 37.7893 14.7768L37.742 14.8848C37.6072 15.1792 37.4728 15.474 37.3386 15.7694C37.1591 16.0904 36.9853 16.4513 37.1866 16.7973C37.4735 17.2834 37.831 17.7171 38.1574 18.1735C38.5106 18.6283 38.8893 19.0275 39.5032 18.7942L40.5517 18.8232L41.6185 19.3023L41.8375 19.4205L42.604 19.8221C42.9573 20.0687 43.3197 20.244 43.745 20.0624L45.8553 18.9234L46.9256 18.4208C47.2951 18.4169 47.7027 18.6259 47.9896 18.1735L48.0744 18.1101L48.5505 17.0807C48.677 16.9758 48.8331 16.8936 48.9243 16.7597C49.0345 16.6031 49.1737 16.3902 49.156 16.2203C49.1214 15.8908 49.2153 15.8289 49.4697 15.8892C49.5587 16.2869 49.695 16.6423 50.1006 16.7573L50.8311 17.0947L50.959 17.1613L51.5242 17.4126C51.5297 17.4204 51.5372 17.4262 51.5458 17.4294C51.5543 17.4326 51.5635 17.433 51.5722 17.4306L51.8774 17.4908L51.9085 17.5049L51.9396 17.4901C52.0194 17.4744 52.1183 17.4901 52.1748 17.4384C52.5281 17.137 52.8863 16.8333 53.2211 16.5045C53.308 16.4192 53.3215 16.243 53.3688 16.1092L53.5398 15.9002C53.6309 15.4109 54.0075 15.2543 54.3437 15.0516L55.4035 14.8817L56.4434 14.9921C56.7522 15.3882 57.1577 15.1854 57.5272 15.2066H58.5799L58.8399 15.2168L58.9388 15.2559L59.4764 15.2974C59.8614 15.5189 60.2451 15.7491 60.7043 15.6003L61.1006 15.6097L61.1981 15.663L61.3331 15.8266L61.6976 16.2156Z" fill="white"/>
</svg>
